<svg width="24" height="24" viewBox="0 0 24 24" fill="none" xmlns="http://www.w3.org/2000/svg">
<path d="M0 12C0 0 0 0 12 0C24 0 24 0 24 12C24 24 24 24 12 24C0 24 0 24 0 12Z" fill="#023477"/>
<path d="M17.9658 8.13491L16.1549 16.675C16.0183 17.2778 15.662 17.4277 15.1557 17.1438L12.3965 15.1106L11.0652 16.3911C10.9179 16.5384 10.7946 16.6617 10.5107 16.6617L10.7089 13.8515L15.8228 9.23054C16.0451 9.03233 15.7746 8.92247 15.4772 9.12071L9.15521 13.1014L6.43353 12.2496C5.84151 12.0647 5.83081 11.6575 6.55673 11.3736L17.2023 7.27234C17.6952 7.08751 18.1265 7.38214 17.9658 8.13491Z" fill="white"/>
</svg>
