<svg width="24" height="24" viewBox="0 0 24 24" fill="none" xmlns="http://www.w3.org/2000/svg">
<path d="M0 12C0 0 0 0 12 0C24 0 24 0 24 12C24 24 24 24 12 24C0 24 0 24 0 12Z" fill="#023477"/>
<path d="M8.70314 17.6602C8.70704 17.2578 8.71486 16.8555 8.71876 16.4531C8.71876 16.3594 8.73048 16.3711 8.64064 16.332C8.14064 16.1328 7.67579 15.8828 7.26564 15.5312C6.83204 15.1602 6.4922 14.7227 6.2422 14.2109C6.00392 13.7188 5.87111 13.1953 5.79689 12.6563C5.76954 12.4453 5.75392 12.2344 5.75392 12.0234C5.75392 11.8242 5.72267 11.625 5.71876 11.4258C5.71486 11.2852 5.71095 11.1406 5.71486 11C5.71876 10.7109 5.69142 10.4219 5.70314 10.1328C5.72657 9.47656 5.84376 8.83594 6.10157 8.22656C6.46876 7.35938 7.07032 6.70312 7.89064 6.24219C8.50782 5.89844 9.16407 5.67969 9.85939 5.56641C10.2891 5.49609 10.7188 5.45703 11.1524 5.44531C11.668 5.42969 12.1836 5.43359 12.7031 5.44141C13.3672 5.44922 14.0234 5.51172 14.668 5.66797C15.2813 5.8125 15.8594 6.04297 16.3906 6.38281C17.0352 6.79297 17.5274 7.33594 17.8594 8.02734C18.0664 8.45312 18.1914 8.90234 18.2734 9.36719C18.332 9.71094 18.3555 10.0547 18.3516 10.4023C18.3477 10.7695 18.3399 11.1367 18.3164 11.5C18.3008 11.75 18.3008 12 18.2891 12.25C18.2461 12.9414 18.1055 13.6094 17.8008 14.2344C17.4258 15 16.8594 15.5781 16.1172 15.9961C15.5039 16.3398 14.8477 16.5547 14.1602 16.6719C13.6211 16.7617 13.0742 16.8047 12.5274 16.8047C12.1914 16.8047 11.8555 16.8008 11.5195 16.8047C11.3477 16.8047 11.1758 16.8086 11.0039 16.7891C10.9492 16.7852 10.9102 16.8008 10.875 16.8437C10.6055 17.1562 10.3359 17.4687 10.0625 17.7812C9.72657 18.168 9.39064 18.5547 9.05861 18.9375C9.02345 18.9766 8.98439 19.0156 8.94142 19.043C8.83595 19.1133 8.72657 19.0742 8.69923 18.9492C8.69142 18.9219 8.69532 18.8867 8.69532 18.8594C8.69142 18.4609 8.69923 18.0586 8.70314 17.6602Z" fill="white"/>
<path d="M8.16797 9.01168C8.17969 8.53512 8.39844 8.17574 8.79297 7.91793C8.95703 7.80856 9.13672 7.72262 9.33203 7.68356C9.53516 7.64059 9.73047 7.66793 9.90234 7.79684C10.0156 7.87887 10.1094 7.98043 10.2031 8.08199C10.5156 8.42574 10.7813 8.79684 10.9961 9.2109C11.0313 9.28121 11.0625 9.35543 11.0859 9.43356C11.1523 9.65621 11.1016 9.85153 10.9531 10.0234C10.8984 10.0859 10.8359 10.1406 10.7695 10.1914C10.707 10.2343 10.6445 10.2812 10.5859 10.3359C10.4492 10.4648 10.4102 10.6211 10.4531 10.8007C10.4688 10.875 10.4961 10.9453 10.5234 11.0117C10.6836 11.3632 10.8984 11.6796 11.1758 11.9531C11.3398 12.1132 11.5156 12.2539 11.7109 12.375C11.8984 12.4922 12.0859 12.6015 12.2969 12.6757C12.4922 12.7461 12.6406 12.7031 12.7695 12.539C12.8242 12.4687 12.8711 12.3945 12.9336 12.3281C13.0508 12.2031 13.1836 12.1093 13.3516 12.0703C13.5352 12.0273 13.7109 12.0586 13.8789 12.1328C14.0391 12.1992 14.1797 12.3007 14.3203 12.3984C14.6016 12.5937 14.875 12.8007 15.1406 13.0156C15.2109 13.0742 15.2734 13.1406 15.332 13.2148C15.4688 13.3945 15.4961 13.5937 15.4375 13.8047C15.3828 14.0078 15.2813 14.1836 15.1484 14.3437C14.918 14.625 14.6367 14.8359 14.2891 14.9492C14.1953 14.9804 14.1016 15 14.0039 15.0078C13.8789 15.0195 13.7617 14.9765 13.6445 14.9414C13.5313 14.9101 13.4258 14.8554 13.3203 14.8086C12.793 14.5742 12.2852 14.2968 11.8047 13.9765C11.082 13.4961 10.4375 12.9336 9.875 12.2734C9.45703 11.7812 9.09375 11.25 8.78516 10.6797C8.58594 10.3164 8.41016 9.94137 8.26172 9.55465C8.20312 9.38668 8.16797 9.17184 8.16797 9.01168Z" fill="#023477"/>
<path d="M15.6913 10.6016C15.6874 10.7305 15.703 10.8243 15.6913 10.9141C15.664 11.1368 15.4687 11.254 15.2616 11.168C15.1366 11.1172 15.0976 11.0079 15.0859 10.8868C15.0741 10.7383 15.0624 10.5899 15.039 10.4415C14.9609 9.98443 14.8359 9.54302 14.5898 9.14459C14.4062 8.84771 14.1679 8.60553 13.871 8.41412C13.5273 8.19147 13.1445 8.06256 12.746 7.97272C12.5741 7.93365 12.3984 7.9024 12.2226 7.88678C12.1796 7.88287 12.1405 7.87506 12.1015 7.85943C11.9804 7.81647 11.9179 7.72662 11.9257 7.59772C11.9413 7.37115 12.0702 7.28131 12.246 7.28131C12.914 7.26959 13.5234 7.44537 14.082 7.80865C14.4101 8.0235 14.703 8.2774 14.9452 8.586C15.414 9.18365 15.6874 9.86334 15.6913 10.6016Z" fill="#023477"/>
<path d="M14.6797 10.5313C14.6758 10.5977 14.6875 10.6837 14.668 10.7696C14.6406 10.9141 14.539 10.9962 14.3867 11.0001C14.2265 11.004 14.125 10.9337 14.0898 10.7891C14.0742 10.7344 14.0742 10.6758 14.0664 10.6172C14.039 10.3555 13.9765 10.0977 13.875 9.85162C13.7344 9.50006 13.4804 9.26178 13.1328 9.11334C12.8906 9.01178 12.6406 8.93756 12.3828 8.8985C12.3125 8.88678 12.2461 8.87116 12.1836 8.83991C12.1523 8.82428 12.125 8.80475 12.1054 8.77741C12.0195 8.67194 12.0234 8.55866 12.0703 8.44147C12.1093 8.336 12.1914 8.27741 12.3047 8.26569C12.3984 8.25397 12.4922 8.26959 12.5859 8.28522C12.8476 8.32428 13.1015 8.39069 13.3437 8.50397C13.6523 8.65241 13.9179 8.85944 14.1445 9.11725C14.3359 9.33991 14.4804 9.586 14.5742 9.86334C14.6406 10.0782 14.6758 10.293 14.6797 10.5313Z" fill="#023477"/>
<path d="M13.707 10.457C13.707 10.5351 13.707 10.6132 13.6797 10.6874C13.6406 10.8007 13.5586 10.8671 13.4414 10.8827C13.3203 10.8984 13.2227 10.8554 13.1563 10.7538C13.1211 10.7031 13.1055 10.6484 13.0977 10.5898C13.082 10.4921 13.0703 10.3906 13.0313 10.3007C12.9492 10.1015 12.793 9.9843 12.5898 9.92961C12.5508 9.9179 12.5078 9.91008 12.4688 9.90227C12.4375 9.89446 12.4023 9.88665 12.3711 9.87883C12.2266 9.83586 12.1523 9.74602 12.1523 9.62102C12.1523 9.47258 12.2344 9.35149 12.3711 9.31243C12.5039 9.27337 12.6406 9.28118 12.7734 9.31633C13.0898 9.40618 13.3242 9.6054 13.5078 9.87102C13.6289 10.0429 13.707 10.2382 13.707 10.457Z" fill="#023477"/>
</svg>
