<svg width="30" height="30" viewBox="0 0 30 30" fill="none" xmlns="http://www.w3.org/2000/svg">
<path d="M8.39585 26.8903L8.39585 26.8904C8.39366 27.1122 8.39095 27.333 8.38824 27.553C8.38387 27.9087 8.37953 28.2623 8.37747 28.6146C8.94567 27.9641 9.51776 27.3098 10.0897 26.6556L10.0915 26.6536C10.6929 25.9706 11.2861 25.2873 11.8813 24.6017C11.9797 24.4846 12.1128 24.3706 12.2909 24.2965C12.4718 24.2213 12.6465 24.2091 12.7909 24.2194L12.8064 24.2205L12.8219 24.2222C13.1015 24.2538 13.3793 24.2531 13.7072 24.2522C13.7615 24.252 13.8172 24.2519 13.8746 24.2519C14.3744 24.2461 14.8789 24.2481 15.3767 24.25C15.6231 24.2509 15.8678 24.2519 16.1094 24.2519C17.2803 24.2519 18.4491 24.1605 19.5992 23.9701C21.0478 23.7246 22.4164 23.2774 23.6888 22.5688C25.2073 21.719 26.3489 20.5567 27.1072 19.0189C27.7264 17.7566 28.0208 16.3919 28.1119 14.9454C28.121 14.7495 28.1273 14.5251 28.1338 14.2919C28.1432 13.9567 28.1531 13.6033 28.1728 13.2903L28.1728 13.2887C28.2234 12.5104 28.2405 11.7191 28.2491 10.9157L28.2491 10.9152C28.2573 10.1913 28.2082 9.48171 28.0873 8.77626C27.914 7.80142 27.6546 6.88606 27.2361 6.03095L27.2345 6.02766C26.5631 4.63849 25.5713 3.5491 24.2585 2.71902L24.257 2.71807C23.1611 2.02151 21.9618 1.54458 20.6758 1.24347L20.6712 1.24238L20.6712 1.24237C19.313 0.915233 17.919 0.781689 16.4896 0.76498L16.4872 0.764952C15.3398 0.747805 14.2125 0.739452 13.0889 0.773281L13.0864 0.773355C12.1585 0.798269 11.2411 0.881256 10.3252 1.03017L10.3247 1.03026C8.86503 1.26654 7.49635 1.72092 6.2121 2.43142C4.53619 3.36738 3.32289 4.68619 2.57835 6.43317L8.39585 26.8903ZM8.39585 26.8903C8.40015 26.4501 8.40661 26.0095 8.41309 25.5669L8.41311 25.5656C8.41958 25.124 8.42609 24.6802 8.43043 24.2361H8.43046V24.2288C8.43046 24.2104 8.43074 24.1947 8.43109 24.1742L8.43113 24.1717C8.43141 24.155 8.43193 24.1246 8.43119 24.0942L8.43112 24.0913C8.42991 24.0394 8.42552 23.8509 8.30855 23.6595C8.18611 23.4591 8.01178 23.3698 7.95638 23.3418C7.91292 23.3199 7.85251 23.2942 7.82045 23.2806C7.81405 23.2779 7.80877 23.2757 7.80499 23.274L7.79438 23.2695L7.78363 23.2652C6.72821 22.8474 5.77799 22.3352 4.9508 21.6307L4.95037 21.6303C4.06835 20.8803 3.38055 20.0002 2.87317 18.9688C2.39054 17.9778 2.11407 16.9095 1.9573 15.7798M8.39585 26.8903L1.9573 15.7798M1.9573 15.7798C1.90057 15.3441 1.8689 14.914 1.8689 14.4883C1.8689 14.2339 1.84884 13.9859 1.83061 13.7685L1.82748 13.7312C1.80976 13.5204 1.79448 13.3387 1.79094 13.1593L1.79097 13.1593L1.7908 13.1532C1.78206 12.8407 1.77419 12.5437 1.78215 12.2588L1.78223 12.2588L1.78238 12.2481C1.78648 11.9462 1.77597 11.6447 1.7662 11.3643C1.76497 11.3288 1.76374 11.2937 1.76256 11.259C1.75176 10.9414 1.74418 10.6486 1.7559 10.3616L1.75603 10.358C1.80529 8.98741 2.05067 7.67249 2.57826 6.43337L1.9573 15.7798ZM1.00661 10.331L1.00651 10.331L1.00661 10.331Z" stroke="white" stroke-width="1.5"/>
<path d="M6 7.93423C6.0273 6.89612 6.53681 6.11328 7.45575 5.55168C7.83789 5.31342 8.25642 5.12622 8.71134 5.04113C9.18446 4.94753 9.63938 5.0071 10.0397 5.2879C10.3036 5.46659 10.5219 5.68783 10.7403 5.90906C11.4682 6.65786 12.0869 7.46623 12.5873 8.36819C12.6692 8.52136 12.742 8.68303 12.7966 8.85321C12.9512 9.33823 12.8329 9.76369 12.4872 10.1381C12.3598 10.2742 12.2142 10.3934 12.0596 10.504C11.914 10.5976 11.7684 10.6997 11.6319 10.8188C11.3135 11.0996 11.2225 11.44 11.3226 11.8314C11.359 11.9931 11.4227 12.1462 11.4864 12.2909C11.8594 13.0567 12.3598 13.746 13.0058 14.3416C13.388 14.6905 13.7974 14.9968 14.2523 15.2606C14.689 15.5158 15.1258 15.7541 15.6171 15.9158C16.072 16.0689 16.4177 15.9753 16.718 15.618C16.8454 15.4648 16.9545 15.3031 17.1001 15.1585C17.3731 14.8862 17.6824 14.682 18.0737 14.5969C18.5013 14.5033 18.9107 14.5713 19.302 14.733C19.675 14.8777 20.0025 15.0989 20.3301 15.3116C20.9852 15.7371 21.6221 16.1881 22.2408 16.6561C22.4045 16.7837 22.5501 16.9284 22.6866 17.09C23.005 17.4815 23.0687 17.9154 22.9322 18.3749C22.8049 18.8174 22.5683 19.2003 22.259 19.5492C21.7221 20.1618 21.0671 20.6213 20.2573 20.8681C20.0389 20.9361 19.8206 20.9787 19.5931 20.9957C19.302 21.0212 19.029 20.9276 18.756 20.8511C18.4922 20.783 18.2465 20.6639 18.0009 20.5617C16.7726 20.0512 15.5898 19.4471 14.4707 18.7493C12.7875 17.7027 11.2862 16.4774 9.97603 15.0393C9.00249 13.9672 8.15634 12.8099 7.43756 11.5676C6.97354 10.7763 6.5641 9.9594 6.21836 9.117C6.08189 8.7511 6 8.2831 6 7.93423Z" fill="white"/>
<path d="M22.9906 11.6331C22.9823 11.9294 23.0154 12.1449 22.9906 12.3514C22.9326 12.8632 22.5182 13.1325 22.0789 12.935C21.8137 12.8183 21.7309 12.5669 21.706 12.2886C21.6811 11.9474 21.6563 11.6062 21.6066 11.265C21.4408 10.2145 21.1756 9.1999 20.6535 8.28408C20.264 7.6017 19.7584 7.04502 19.1286 6.60507C18.3993 6.09329 17.5871 5.79699 16.7418 5.59048C16.3771 5.5007 16.0042 5.42887 15.6312 5.39295C15.5401 5.38397 15.4572 5.36602 15.3743 5.3301C15.1174 5.23134 14.9848 5.02483 15.0014 4.72853C15.0345 4.20777 15.308 4.00126 15.681 4.00126C17.0981 3.97433 18.391 4.37837 19.5761 5.21338C20.2723 5.70721 20.8938 6.29082 21.4077 7.00013C22.4022 8.37386 22.9823 9.93615 22.9906 11.6331Z" fill="white"/>
<path d="M21 10.9727C20.9911 11.1182 21.0177 11.3065 20.9734 11.4947C20.9113 11.8114 20.6807 11.9911 20.3347 11.9997C19.9711 12.0082 19.7404 11.8542 19.6606 11.5375C19.6251 11.4177 19.6251 11.2893 19.6074 11.161C19.5453 10.5876 19.4034 10.0227 19.1728 9.48357C18.8534 8.71334 18.2769 8.19129 17.4874 7.86608C16.9375 7.64357 16.3698 7.48096 15.7844 7.39538C15.6247 7.36971 15.4739 7.33548 15.332 7.26701C15.261 7.23278 15.1989 7.18999 15.1546 7.13008C14.9595 6.89901 14.9683 6.65082 15.0748 6.39408C15.1635 6.16301 15.3497 6.03464 15.607 6.00896C15.8199 5.98329 16.0327 6.01752 16.2456 6.05175C16.8399 6.13734 17.4165 6.28282 17.9664 6.53101C18.6672 6.85622 19.2703 7.3098 19.7848 7.87464C20.2194 8.36245 20.5476 8.90162 20.7605 9.50924C20.9113 9.97994 20.9911 10.4506 21 10.9727Z" fill="white"/>
<path d="M19 10.9274C19 11.1228 19 11.3181 18.9296 11.5037C18.8291 11.787 18.6181 11.9531 18.3166 11.9922C18.005 12.0313 17.7538 11.9238 17.5829 11.6698C17.4925 11.5428 17.4523 11.4061 17.4322 11.2595C17.392 11.0153 17.3618 10.7613 17.2613 10.5366C17.0503 10.0384 16.6482 9.74537 16.1256 9.60861C16.0251 9.5793 15.9146 9.55977 15.8141 9.54023C15.7337 9.52069 15.6432 9.50116 15.5628 9.48162C15.191 9.37416 15 9.14948 15 8.83688C15 8.46567 15.2111 8.16284 15.5628 8.06515C15.9045 7.96746 16.2563 7.987 16.598 8.07492C17.4121 8.2996 18.0151 8.7978 18.4874 9.46208C18.799 9.8919 19 10.3803 19 10.9274Z" fill="white"/>
</svg>
