<svg width="30" height="30" viewBox="0 0 30 30" fill="none" xmlns="http://www.w3.org/2000/svg">
<g clip-path="url(#clip0)">
<path fill-rule="evenodd" clip-rule="evenodd" d="M7.64588 26.883C7.65021 26.4406 7.65669 25.9982 7.66317 25.5559C7.66966 25.1135 7.67614 24.6712 7.68046 24.2288C7.68046 24.2048 7.68081 24.184 7.68112 24.1658V24.1657C7.68213 24.1057 7.68267 24.0738 7.66865 24.0507C7.65276 24.0246 7.61818 24.0098 7.54442 23.9783L7.54438 23.9783L7.54436 23.9783L7.50756 23.9625C6.401 23.5245 5.37224 22.9747 4.46452 22.2017C3.50492 21.3857 2.7528 20.4237 2.19952 19.2984C1.67218 18.2162 1.37825 17.0652 1.21399 15.8798C1.15348 15.416 1.1189 14.9522 1.1189 14.4883C1.1189 14.2547 1.09922 14.0211 1.07955 13.7874C1.06234 13.583 1.04512 13.3786 1.04109 13.1741C1.03244 12.8649 1.0238 12.5471 1.03245 12.2379C1.03629 11.9554 1.02647 11.6729 1.01665 11.3904C1.00438 11.0373 0.992101 10.6841 1.00651 10.331C1.05838 8.88798 1.31773 7.4793 1.8883 6.13934C2.70093 4.23247 4.03227 2.78944 5.84772 1.77588C7.21363 1.02 8.666 0.538991 10.2048 0.289895C11.1558 0.135284 12.1067 0.0493895 13.0663 0.023621C14.2075 -0.0107369 15.3486 -0.00214731 16.4984 0.0150317C17.968 0.0322107 19.4204 0.169643 20.8468 0.513223C22.2041 0.831034 23.4836 1.33781 24.6593 2.0851C26.0857 2.987 27.175 4.18094 27.9098 5.70128C28.368 6.63753 28.6446 7.62532 28.8262 8.64747C28.9559 9.40335 29.0077 10.1592 28.9991 10.9237C28.9904 11.7311 28.9731 12.5385 28.9213 13.3373C28.9015 13.6515 28.893 13.9656 28.8846 14.2797C28.8782 14.5153 28.8719 14.7509 28.8608 14.9865C28.7657 16.5069 28.4544 17.9757 27.7801 19.35C26.9502 21.0335 25.6967 22.3048 24.0541 23.2238C22.6969 23.9797 21.2445 24.4521 19.723 24.7098C18.53 24.9074 17.3197 25.0019 16.1094 25.0019C15.8615 25.0019 15.6137 25.0009 15.3659 25C14.8702 24.9981 14.3746 24.9961 13.8789 25.0019L13.7796 25.002L13.7159 25.0022H13.7159C13.3899 25.0033 13.0638 25.0043 12.7378 24.9675C12.6168 24.9589 12.5303 24.9933 12.4525 25.0878C11.856 25.7749 11.2595 26.4621 10.6544 27.1492C9.91088 27.9996 9.16741 28.85 8.43258 29.6917C8.35478 29.7776 8.26833 29.8635 8.17323 29.9237C7.93982 30.0783 7.69775 29.9924 7.63724 29.7175C7.62413 29.6719 7.62593 29.6164 7.62757 29.5661C7.62809 29.55 7.62859 29.5345 7.62859 29.5199C7.6221 28.8615 7.63025 28.1982 7.63837 27.5373L7.63838 27.5368C7.64106 27.3185 7.64374 27.1005 7.64588 26.883ZM6 7.93423C6.0273 6.89612 6.53681 6.11328 7.45575 5.55168C7.83789 5.31342 8.25642 5.12622 8.71134 5.04113C9.18446 4.94753 9.63938 5.0071 10.0397 5.2879C10.3036 5.46659 10.5219 5.68783 10.7403 5.90906C11.4682 6.65786 12.0869 7.46623 12.5873 8.36819C12.6692 8.52136 12.742 8.68303 12.7966 8.85321C12.9512 9.33823 12.8329 9.76369 12.4872 10.1381C12.3598 10.2742 12.2142 10.3934 12.0596 10.504C11.914 10.5976 11.7684 10.6997 11.6319 10.8188C11.3135 11.0996 11.2225 11.44 11.3226 11.8314C11.359 11.9931 11.4227 12.1462 11.4864 12.2909C11.8594 13.0567 12.3598 13.746 13.0058 14.3416C13.388 14.6905 13.7974 14.9968 14.2523 15.2606C14.689 15.5158 15.1258 15.7541 15.6171 15.9158C16.072 16.0689 16.4177 15.9753 16.718 15.618C16.7605 15.5669 16.8009 15.5149 16.8413 15.4629C16.9222 15.3589 17.0031 15.2549 17.1001 15.1585C17.3731 14.8862 17.6824 14.682 18.0737 14.5969C18.5013 14.5033 18.9107 14.5713 19.302 14.733C19.6473 14.8669 19.9537 15.0665 20.2572 15.2642L20.3301 15.3116C20.9852 15.7371 21.6221 16.1881 22.2408 16.6561C22.4045 16.7837 22.5501 16.9284 22.6866 17.09C23.005 17.4815 23.0687 17.9154 22.9322 18.3749C22.8049 18.8174 22.5683 19.2003 22.2589 19.5492C21.7221 20.1618 21.0671 20.6213 20.2573 20.8681C20.0389 20.9361 19.8206 20.9787 19.5931 20.9957C19.337 21.0182 19.095 20.9484 18.8546 20.8792C18.8217 20.8697 18.7889 20.8603 18.756 20.8511C18.5513 20.7982 18.3576 20.7147 18.1663 20.6322L18.1662 20.6322L18.1662 20.6322L18.1661 20.6321C18.1109 20.6083 18.0559 20.5846 18.0009 20.5617C16.7726 20.0512 15.5898 19.4471 14.4707 18.7493C12.7875 17.7027 11.2862 16.4774 9.97603 15.0393C9.00249 13.9672 8.15634 12.8099 7.43756 11.5676C6.97354 10.7763 6.5641 9.9594 6.21836 9.117C6.08189 8.75111 6 8.2831 6 7.93423ZM22.9951 11.98V11.98V11.98C22.9912 11.8757 22.987 11.7621 22.9906 11.6331C22.9823 9.93615 22.4022 8.37386 21.4077 7.00013C20.8938 6.29082 20.2723 5.70721 19.5761 5.21338C18.391 4.37837 17.0981 3.97433 15.681 4.00126C15.308 4.00126 15.0345 4.20777 15.0014 4.72853C14.9848 5.02483 15.1174 5.23134 15.3743 5.3301C15.4572 5.36602 15.5401 5.38397 15.6312 5.39295C16.0042 5.42887 16.3771 5.5007 16.7418 5.59048C17.5871 5.79699 18.3993 6.09329 19.1286 6.60507C19.7584 7.04502 20.264 7.6017 20.6535 8.28408C21.1756 9.1999 21.4408 10.2145 21.6066 11.265C21.6563 11.6062 21.6811 11.9474 21.706 12.2886C21.7309 12.5669 21.8137 12.8183 22.0789 12.935C22.5182 13.1325 22.9326 12.8632 22.9906 12.3514C23.0046 12.2348 23.0002 12.1153 22.9951 11.9801V11.98ZM21 10.9727C20.9971 11.0205 20.998 11.0729 20.999 11.1285C21.001 11.2419 21.0032 11.3683 20.9734 11.4947C20.9113 11.8114 20.6807 11.9911 20.3347 11.9997C19.9711 12.0082 19.7404 11.8542 19.6606 11.5375C19.6368 11.4571 19.629 11.3727 19.621 11.2871L19.621 11.2871C19.6171 11.2452 19.6132 11.2031 19.6074 11.161C19.5453 10.5876 19.4034 10.0227 19.1728 9.48357C18.8534 8.71334 18.2769 8.19129 17.4874 7.86608C16.9375 7.64357 16.3698 7.48096 15.7844 7.39538C15.6247 7.36971 15.4739 7.33548 15.332 7.26701C15.261 7.23278 15.1989 7.18999 15.1546 7.13008C14.9595 6.89901 14.9683 6.65082 15.0748 6.39408C15.1635 6.16301 15.3497 6.03464 15.607 6.00896C15.8199 5.98329 16.0327 6.01752 16.2456 6.05175C16.8399 6.13734 17.4165 6.28282 17.9664 6.53101C18.6672 6.85622 19.2703 7.3098 19.7848 7.87464C20.2194 8.36245 20.5476 8.90162 20.7605 9.50924C20.9113 9.97994 20.9911 10.4506 21 10.9727ZM18.9296 11.5037C19 11.3181 19 11.1228 19 10.9274C19 10.3803 18.799 9.8919 18.4874 9.46208C18.0151 8.7978 17.4121 8.2996 16.598 8.07492C16.2563 7.987 15.9045 7.96746 15.5628 8.06515C15.2111 8.16284 15 8.46567 15 8.83688C15 9.14948 15.191 9.37416 15.5628 9.48162C15.603 9.49139 15.6457 9.50115 15.6884 9.51092C15.7312 9.52069 15.7739 9.53046 15.8141 9.54023C15.8283 9.54299 15.8427 9.54576 15.8573 9.54855C15.9457 9.56549 16.0393 9.58345 16.1256 9.60861C16.6482 9.74537 17.0503 10.0384 17.2613 10.5366C17.3483 10.7312 17.3826 10.9478 17.4164 11.161C17.4216 11.1939 17.4268 11.2268 17.4322 11.2595C17.4523 11.4061 17.4925 11.5428 17.5829 11.6698C17.7538 11.9238 18.005 12.0313 18.3166 11.9922C18.6181 11.9531 18.8291 11.787 18.9296 11.5037Z" fill="white"/>
</g>
<defs>
<clipPath id="clip0">
<rect width="30" height="30" fill="white"/>
</clipPath>
</defs>
</svg>
