<svg width="42" height="42" viewBox="0 0 42 42" fill="none" xmlns="http://www.w3.org/2000/svg">
<path d="M21 42C15.4304 42 10.089 39.7875 6.15072 35.8492C2.21245 31.911 0 26.5695 0 21C0 15.4304 2.21245 10.089 6.15072 6.15076C10.089 2.2125 15.4304 0 21 0C26.0946 0.0073248 31.0142 1.85938 34.8488 5.2136C37.047 7.10995 38.8153 9.45344 40.0358 12.0876C41.9387 16.1808 42.4769 20.777 41.5709 25.1991C40.665 29.6212 38.3628 33.6355 35.0035 36.6506C33.1704 38.3268 31.0417 39.6477 28.7259 40.5461C26.2646 41.511 23.6437 42.0042 21 42ZM21 4.9C17.8157 4.9 14.703 5.84424 12.0553 7.61333C9.40771 9.38242 7.34408 11.8969 6.12551 14.8388C4.90694 17.7807 4.5881 21.0179 5.20932 24.1409C5.83054 27.264 7.36397 30.1328 9.61559 32.3844C11.8672 34.636 14.736 36.1694 17.859 36.7906C20.9821 37.4118 24.2193 37.093 27.1612 35.8744C30.1031 34.6559 32.6175 32.5923 34.3866 29.9447C36.1557 27.297 37.1 24.1843 37.1 21C37.1161 18.7061 36.6342 16.4361 35.6877 14.3465C34.7412 12.257 33.3525 10.3977 31.6176 8.89699C28.6775 6.32557 24.9059 4.90572 21 4.9Z" fill="url(#paint0_linear)"/>
<path d="M24.7212 30.1L23.9232 27.4134H17.7254L16.9274 30.1H11.767L17.9116 11.48H23.7104L29.855 30.1H24.7212ZM18.949 23.317H22.6996L20.8096 16.9862L18.949 23.317Z" fill="white"/>
<defs>
<linearGradient id="paint0_linear" x1="0" y1="21" x2="41.9997" y2="21" gradientUnits="userSpaceOnUse">
<stop stop-color="#FEA82E"/>
<stop offset="1" stop-color="#FF6F00"/>
</linearGradient>
</defs>
</svg>
