<svg width="10" height="6" viewBox="0 0 10 6" fill="none" xmlns="http://www.w3.org/2000/svg">
<path d="M0.382525 0.363961C0.892559 -0.12132 1.71949 -0.12132 2.22952 0.363961L5.92351 3.87868C6.43355 4.36396 6.43355 5.15076 5.92351 5.63604C5.41348 6.12132 4.58655 6.12132 4.07652 5.63604L0.382525 2.12132C-0.127508 1.63604 -0.127508 0.849242 0.382525 0.363961Z" fill="white"/>
<path d="M9.61747 0.363963C10.1275 0.849244 10.1275 1.63604 9.61747 2.12132L5.92351 5.63604C5.41348 6.12132 4.58655 6.12132 4.07652 5.63604C3.56648 5.15076 3.56645 4.36396 4.07649 3.87868L7.77048 0.363963C8.28051 -0.121318 9.10744 -0.121318 9.61747 0.363963Z" fill="white"/>
</svg>
