<svg xmlns="http://www.w3.org/2000/svg" xmlns:xlink="http://www.w3.org/1999/xlink" width="260.162" height="60" viewBox="0 0 260.162 60">
  <defs>
    <linearGradient id="linear-gradient" y1="0.5" x2="1" y2="0.5" gradientUnits="objectBoundingBox">
      <stop offset="0" stop-color="#fea82e"/>
      <stop offset="1" stop-color="#ff6f00"/>
    </linearGradient>
  </defs>
  <g id="lg" transform="translate(-119 -69)">
    <g id="Group_1" data-name="Group 1" transform="translate(0 -10)">
      <path id="Subtraction_7" data-name="Subtraction 7" d="M1060,376a30,30,0,1,1,0-60,30.115,30.115,0,0,1,19.784,7.448,28.3,28.3,0,0,1,3.677,3.8,18.3,18.3,0,0,0-6.972,2.692c-.42-.425-.864-.839-1.321-1.23A23.091,23.091,0,0,0,1060,323a23,23,0,1,0,8.461,44.407,21.945,21.945,0,0,0,6.875-4.267c.6-.552,1.178-1.135,1.714-1.733a18.3,18.3,0,0,0,7.03,2.436,32.124,32.124,0,0,1-4.075,4.515,28.636,28.636,0,0,1-8.968,5.565A30.108,30.108,0,0,1,1060,376Z" transform="translate(-911 -237)" fill="url(#linear-gradient)"/>
      <path id="Path_4" data-name="Path 4" d="M18.316,0l-1.14-3.838H8.322L7.182,0H-.19L8.588-26.6h8.284L25.65,0ZM10.07-9.69h5.358l-2.7-9.044Zm42.978-5.548v2.7a12.75,12.75,0,0,1-3.667,9.481A12.952,12.952,0,0,1,39.862.57,13.9,13.9,0,0,1,29.621-3.42a13.34,13.34,0,0,1-4.009-9.842,13.5,13.5,0,0,1,3.99-9.88,13.353,13.353,0,0,1,9.88-4.028A14.126,14.126,0,0,1,46.3-25.5a12.752,12.752,0,0,1,4.845,4.446l-5.776,3.306a5.646,5.646,0,0,0-2.337-2.014,7.748,7.748,0,0,0-3.477-.76,6.928,6.928,0,0,0-5.168,2.052,7.174,7.174,0,0,0-2.014,5.244,7.329,7.329,0,0,0,1.995,5.206,7.308,7.308,0,0,0,5.6,2.128q4.636,0,6.118-3.5h-6.46v-5.852ZM70.072,0,65.436-8.588H63V0H56.2V-26.6h10.64A9.551,9.551,0,0,1,73.663-24,8.68,8.68,0,0,1,76.418-17.4,8.272,8.272,0,0,1,75.2-13.015,8.937,8.937,0,0,1,71.9-9.842L77.368,0ZM63-20.33v5.966h3.762a2.6,2.6,0,0,0,2.052-.8,3.008,3.008,0,0,0,.8-2.166,3.008,3.008,0,0,0-.8-2.166,2.711,2.711,0,0,0-2.052-.836ZM102.2-3.439A13.53,13.53,0,0,1,92.3.57a13.53,13.53,0,0,1-9.9-4.009A13.339,13.339,0,0,1,78.356-13.3,13.339,13.339,0,0,1,82.4-23.161a13.53,13.53,0,0,1,9.9-4.009,13.53,13.53,0,0,1,9.9,4.009,13.339,13.339,0,0,1,4.047,9.861A13.339,13.339,0,0,1,102.2-3.439ZM87.172-8.113A6.994,6.994,0,0,0,92.3-6.08a6.994,6.994,0,0,0,5.13-2.033A6.991,6.991,0,0,0,99.484-13.3a6.991,6.991,0,0,0-2.052-5.187A6.994,6.994,0,0,0,92.3-20.52a6.994,6.994,0,0,0-5.13,2.033A6.991,6.991,0,0,0,85.12-13.3,6.991,6.991,0,0,0,87.172-8.113ZM126.312-26.6v6.574h-6.574V0h-6.8V-20.026h-6.574V-26.6Zm9.272,20.216h10.3V0h-17.1V-26.6h16.91v6.346H135.584v3.686h9.158v6.27h-9.158ZM163.78-26.6h6.764V0H165.3l-9.386-13.376V0h-6.8V-26.6h5.282l9.386,13.376Zm21.812,0a12.318,12.318,0,0,1,9.215,3.819,13.081,13.081,0,0,1,3.705,9.481,13.081,13.081,0,0,1-3.705,9.481A12.318,12.318,0,0,1,185.592,0h-10.83V-26.6Zm0,20.026a5.952,5.952,0,0,0,4.522-1.843,6.8,6.8,0,0,0,1.748-4.883,6.8,6.8,0,0,0-1.748-4.883,5.952,5.952,0,0,0-4.522-1.843h-3.838V-6.574Zm22.876.19h10.3V0h-17.1V-26.6h16.91v6.346H208.468v3.686h9.158v6.27h-9.158ZM235.866,0,231.23-8.588H228.8V0H222V-26.6h10.64a9.551,9.551,0,0,1,6.821,2.6,8.68,8.68,0,0,1,2.755,6.593A8.272,8.272,0,0,1,241-13.015a8.937,8.937,0,0,1-3.306,3.173L243.162,0ZM228.8-20.33v5.966h3.762a2.6,2.6,0,0,0,2.052-.8,3.008,3.008,0,0,0,.8-2.166,3.008,3.008,0,0,0-.8-2.166,2.711,2.711,0,0,0-2.052-.836Z" transform="translate(136 122)" fill="#003477"/>
    </g>
    <g id="Group_5" data-name="Group 5" transform="translate(0 -10)">
      <path id="Subtraction_7-2" data-name="Subtraction 7" d="M1060,376a30,30,0,1,1,0-60,30.115,30.115,0,0,1,19.784,7.448,28.3,28.3,0,0,1,3.677,3.8,18.3,18.3,0,0,0-6.972,2.692c-.42-.425-.864-.839-1.321-1.23A23.091,23.091,0,0,0,1060,323a23,23,0,1,0,8.461,44.407,21.945,21.945,0,0,0,6.875-4.267c.6-.552,1.178-1.135,1.714-1.733a18.3,18.3,0,0,0,7.03,2.436,32.124,32.124,0,0,1-4.075,4.515,28.636,28.636,0,0,1-8.968,5.565A30.108,30.108,0,0,1,1060,376Z" transform="translate(-911 -237)" fill="url(#linear-gradient)"/>
    </g>
  </g>
</svg>
