<svg width="16" height="14" viewBox="0 0 16 14" fill="none" xmlns="http://www.w3.org/2000/svg">
<path d="M0 0.995417C0 0.445664 0.358172 0 0.8 0H15.2C15.6418 0 16 0.445664 16 0.995417C16 1.54517 15.6418 1.99083 15.2 1.99083H0.8C0.358172 1.99083 0 1.54517 0 0.995417Z" fill="#EFF1F5"/>
<path d="M0 7C0 6.45025 0.358172 6.00458 0.8 6.00458H15.2C15.6418 6.00458 16 6.45025 16 7C16 7.54975 15.6418 7.99542 15.2 7.99542H0.8C0.358172 7.99542 0 7.54975 0 7Z" fill="#EFF1F5"/>
<path d="M0.8 12.0092C0.358172 12.0092 0 12.4548 0 13.0046C0 13.5543 0.358172 14 0.8 14H15.2C15.6418 14 16 13.5543 16 13.0046C16 12.4548 15.6418 12.0092 15.2 12.0092H0.8Z" fill="#EFF1F5"/>
</svg>
