<svg width="20" height="20" viewBox="0 0 20 20" fill="none" xmlns="http://www.w3.org/2000/svg">
<path fill-rule="evenodd" clip-rule="evenodd" d="M13.6364 7.27273C13.6364 9.28104 12.0083 10.9091 10 10.9091C7.99169 10.9091 6.36364 9.28104 6.36364 7.27273C6.36364 5.26442 7.99169 3.63636 10 3.63636C12.0083 3.63636 13.6364 5.26442 13.6364 7.27273ZM11.8182 7.27273C11.8182 8.27688 11.0042 9.09091 10 9.09091C8.99585 9.09091 8.18182 8.27688 8.18182 7.27273C8.18182 6.26857 8.99585 5.45455 10 5.45455C11.0042 5.45455 11.8182 6.26857 11.8182 7.27273Z" fill="#EFF1F5"/>
<path fill-rule="evenodd" clip-rule="evenodd" d="M10 0C4.47715 0 0 4.47715 0 10C0 15.5228 4.47715 20 10 20C15.5228 20 20 15.5228 20 10C20 4.47715 15.5228 0 10 0ZM1.81818 10C1.81818 11.9002 2.46595 13.6491 3.55271 15.0379C5.04768 13.0808 7.4057 11.8182 10.0586 11.8182C12.6771 11.8182 15.0083 13.0483 16.5059 14.9621C17.5573 13.5857 18.1818 11.8658 18.1818 10C18.1818 5.48131 14.5187 1.81818 10 1.81818C5.48131 1.81818 1.81818 5.48131 1.81818 10ZM10 18.1818C8.04524 18.1818 6.25059 17.4963 4.84334 16.3526C5.99411 14.7102 7.90096 13.6364 10.0586 13.6364C12.1895 13.6364 14.0758 14.6837 15.2307 16.2917C13.8126 17.4719 11.9892 18.1818 10 18.1818Z" fill="#EFF1F5"/>
</svg>
