<svg width="12" height="8" viewBox="0 0 12 8" fill="none" xmlns="http://www.w3.org/2000/svg">
<path d="M0.334979 0.337013C0.781617 -0.10947 1.50576 -0.10947 1.9524 0.337013L6.80265 5.18559C7.24929 5.63207 7.24929 6.35596 6.80265 6.80245C6.35601 7.24893 5.63187 7.24893 5.18523 6.80245L0.334978 1.95387C-0.11166 1.50739 -0.111659 0.783497 0.334979 0.337013Z" fill="#104D9D"/>
<path d="M11.665 0.334863C12.1117 0.781346 12.1117 1.50524 11.665 1.95172L6.80992 6.80514C6.36329 7.25162 5.63914 7.25162 5.19251 6.80514C4.74587 6.35865 4.74587 5.63476 5.19251 5.18828L10.0476 0.334862C10.4942 -0.111621 11.2184 -0.111621 11.665 0.334863Z" fill="#104D9D"/>
</svg>
