<svg width="10" height="17" viewBox="0 0 10 17" fill="none" xmlns="http://www.w3.org/2000/svg">
<path d="M7.82863 0.707078C8.21916 0.316553 8.85232 0.316554 9.24284 0.707078C9.63337 1.0976 9.63337 1.73077 9.24284 2.12129L2.17178 9.19236C1.78125 9.58288 1.14809 9.58288 0.757563 9.19236C0.367039 8.80183 0.367039 8.16867 0.757563 7.77815L7.82863 0.707078Z" fill="#001430"/>
<path d="M0.7072 9.12126C0.316675 8.73074 0.316676 8.09757 0.7072 7.70705C1.09772 7.31652 1.73089 7.31652 2.12141 7.70705L9.19248 14.7781C9.58301 15.1686 9.58301 15.8018 9.19248 16.1923C8.80196 16.5829 8.16879 16.5829 7.77827 16.1923L0.7072 9.12126Z" fill="#001430"/>
</svg>
