<svg width="24" height="24" viewBox="0 0 24 24" fill="none" xmlns="http://www.w3.org/2000/svg">
<path fill-rule="evenodd" clip-rule="evenodd" d="M16.3636 8.72727C16.3636 11.1372 14.41 13.0909 12 13.0909C9.59003 13.0909 7.63636 11.1372 7.63636 8.72727C7.63636 6.3173 9.59003 4.36364 12 4.36364C14.41 4.36364 16.3636 6.3173 16.3636 8.72727ZM14.1818 8.72727C14.1818 9.93226 13.205 10.9091 12 10.9091C10.795 10.9091 9.81818 9.93226 9.81818 8.72727C9.81818 7.52229 10.795 6.54545 12 6.54545C13.205 6.54545 14.1818 7.52229 14.1818 8.72727Z" fill="#AAB6CD"/>
<path fill-rule="evenodd" clip-rule="evenodd" d="M12 0C5.37258 0 0 5.37258 0 12C0 18.6274 5.37258 24 12 24C18.6274 24 24 18.6274 24 12C24 5.37258 18.6274 0 12 0ZM2.18182 12C2.18182 14.2802 2.95914 16.3789 4.26325 18.0455C6.05721 15.697 8.88684 14.1818 12.0703 14.1818C15.2125 14.1818 18.01 15.6579 19.8071 17.9545C21.0688 16.3028 21.8182 14.2389 21.8182 12C21.8182 6.57757 17.4224 2.18182 12 2.18182C6.57757 2.18182 2.18182 6.57757 2.18182 12ZM12 21.8182C9.65429 21.8182 7.50071 20.9956 5.81201 19.6231C7.19293 17.6522 9.48115 16.3636 12.0703 16.3636C14.6274 16.3636 16.8909 17.6204 18.2768 19.55C16.5751 20.9663 14.387 21.8182 12 21.8182Z" fill="#AAB6CD"/>
</svg>
