<svg width="40" height="42" viewBox="0 0 40 42" fill="none" xmlns="http://www.w3.org/2000/svg">
<path d="M35.4891 4.08965C34.4431 3.13013 30.2088 0.0706151 20.7683 0.0297108C20.7683 0.0297108 9.63911 -0.63462 4.21863 4.31946C1.20358 7.32128 0.140938 11.7259 0.0255774 17.1802C-0.0897831 22.6348 -0.229812 32.8544 9.66378 35.6268H9.67194L9.66378 39.8591C9.66378 39.8591 9.59794 41.5733 10.7347 41.9178C12.1022 42.3444 12.9095 41.0403 14.2192 39.6376C14.936 38.8667 15.9244 37.7348 16.6741 36.8734C23.4455 37.4395 28.6437 36.1435 29.2367 35.955C30.6043 35.5121 38.3395 34.5277 39.5916 24.3079C40.8931 13.76 38.9655 7.09987 35.4891 4.08965Z" fill="white"/>
<path d="M36.6344 23.5371C35.5717 32.067 29.3027 32.6085 28.1495 32.9776C27.6552 33.1334 23.0832 34.2654 17.3415 33.8963C17.3415 33.8963 13.0578 39.039 11.7233 40.376C11.2867 40.8106 10.809 40.7696 10.8172 39.9084C10.8172 39.3426 10.8501 32.8793 10.8501 32.8793C10.8419 32.8793 10.8419 32.8793 10.8501 32.8793C2.46403 30.5662 2.9583 21.8638 3.0489 17.3116C3.1395 12.7595 4.00452 9.02757 6.55822 6.51779C11.1467 2.37568 20.5954 2.99089 20.5954 2.99089C28.5778 3.02366 32.4002 5.41858 33.2899 6.22242C36.2307 8.73229 37.7301 14.7363 36.6344 23.5371Z" fill="url(#paint0_linear)"/>
<path d="M25.1837 16.9096C25.2166 17.6149 24.154 17.6643 24.1211 16.9587C24.0304 15.1543 23.1819 14.2768 21.4355 14.1783C20.727 14.1373 20.793 13.0792 21.4931 13.1203C23.7916 13.2433 25.0685 14.5556 25.1837 16.9096Z" fill="white"/>
<path d="M26.8561 17.8364C26.9383 14.3587 24.7555 11.6357 20.6117 11.3323C19.9115 11.283 19.9857 10.2249 20.686 10.2741C25.4639 10.6187 28.0093 13.8913 27.9187 17.8611C27.9104 18.5664 26.8395 18.5337 26.8561 17.8364Z" fill="white"/>
<path d="M30.7279 18.9356C30.7361 19.641 29.6652 19.6491 29.6652 18.9438C29.6157 12.2591 25.1427 8.61734 19.7139 8.57635C19.0137 8.56813 19.0137 7.51831 19.7139 7.51831C25.7852 7.55931 30.6702 11.7341 30.7279 18.9356Z" fill="white"/>
<path d="M29.7968 26.9816V26.9981C28.9072 28.5565 27.2431 30.2791 25.5297 29.7295L25.5132 29.7048C23.775 29.2209 19.681 27.1212 17.0943 25.0706C15.7597 24.0207 14.5405 22.7823 13.6013 21.5929C12.7529 20.5348 11.8962 19.2798 11.0642 17.7707C9.30961 14.6129 8.92245 13.2021 8.92245 13.2021C8.3705 11.4961 10.0922 9.83922 11.6655 8.95348H11.6821C12.4399 8.55968 13.1648 8.69098 13.6509 9.27322C13.6509 9.27322 14.6724 10.487 15.1089 11.086C15.5208 11.6437 16.0728 12.5376 16.3611 13.038C16.8636 13.9319 16.5505 14.8424 16.0563 15.2196L15.0677 16.0071C14.5653 16.4089 14.6311 17.1553 14.6311 17.1553C14.6311 17.1553 16.0975 22.6754 21.5756 24.0698C21.5756 24.0698 22.3254 24.1355 22.7289 23.6351L23.5198 22.6509C23.8986 22.1587 24.8131 21.8471 25.711 22.3475C26.922 23.0281 28.4624 24.0863 29.484 25.046C30.0605 25.5134 30.1923 26.2272 29.7968 26.9816Z" fill="white"/>
<defs>
<linearGradient id="paint0_linear" x1="20.0026" y1="2.95862" x2="20.0026" y2="40.6472" gradientUnits="userSpaceOnUse">
<stop stop-color="#8A78E7"/>
<stop offset="1" stop-color="#7E65FF"/>
</linearGradient>
</defs>
</svg>
