<svg width="280" height="60" viewBox="0 0 280 60" fill="none" xmlns="http://www.w3.org/2000/svg">
<path d="M30.7801 59.9999C22.6301 60.017 14.8047 56.8582 9.01543 51.2142C6.20823 48.4872 3.96782 45.2484 2.41937 41.6785C0.822868 37.9854 0 34.0133 0 30C0 25.9867 0.822868 22.0146 2.41937 18.3215C3.96782 14.7516 6.20823 11.5128 9.01543 8.78576C14.8047 3.1418 22.6301 -0.0170347 30.7801 6.90967e-05C38.234 0.00682264 45.437 2.65009 51.0747 7.44755C52.0803 8.28375 53.0264 9.18695 53.9061 10.1508C51.7823 11.0297 49.8071 12.222 48.0484 13.6865C47.5231 13.1494 46.9703 12.6391 46.392 12.1575C42.0552 8.46687 36.5142 6.43353 30.7801 6.42863C26.9841 6.45228 23.2506 7.38205 19.9003 9.13809C16.55 10.8941 13.6829 13.424 11.5452 16.5104C9.40759 19.5968 8.06327 23.1475 7.6277 26.8577C7.19214 30.5679 7.67834 34.3266 9.04457 37.8112C10.4108 41.2958 12.6162 44.4021 15.4715 46.8633C18.3267 49.3246 21.7464 51.0672 25.437 51.9416C29.1276 52.8161 32.9788 52.7961 36.6599 51.8836C40.3409 50.971 43.7418 49.1931 46.5706 46.7025C46.6948 46.5953 46.8233 46.4732 46.9627 46.3435C48.7875 48.0713 50.8937 49.4859 53.1939 50.5285C52.5906 51.1617 51.9557 51.7757 51.3067 52.3553C48.6151 54.7531 45.4955 56.6399 42.1057 57.9203C38.4948 59.3004 34.6539 60.0057 30.7801 59.9999V59.9999Z" fill="url(#paint0_linear)"/>
<path d="M44.4753 43.9285H37.2334L35.7851 39.45H25.0258L23.5774 43.9285H16.3356L26.1845 15.4286H34.6264L44.4753 43.9285ZM30.4054 22.8793L27.0121 33.3429H33.7987L30.4054 22.8793Z" fill="#295C9E"/>
<path d="M60.0472 28.05H74.5722V30.4929C74.5722 34.7271 73.2204 38.1336 70.5168 40.7121C67.8408 43.2364 64.4337 44.4985 60.2955 44.4985C55.7986 44.4985 52.0605 43.0736 49.081 40.2236C46.1291 37.3736 44.6531 33.8721 44.6531 29.7193C44.6531 25.5664 46.1153 22.0515 49.0396 19.1743C51.9639 16.2972 55.5641 14.8586 59.8403 14.8586C62.5163 14.8586 64.9716 15.4558 67.2062 16.65C69.4685 17.8172 71.2341 19.3915 72.5031 21.3729L66.8752 24.5486C66.2131 23.5443 65.2475 22.7436 63.9785 22.1465C62.737 21.5222 61.3438 21.21 59.7989 21.21C57.3436 21.21 55.302 22.0107 53.6744 23.6122C52.0743 25.1864 51.2742 27.2357 51.2742 29.76C51.2742 32.2029 52.1018 34.225 53.7571 35.8264C55.4124 37.3736 57.6194 38.1471 60.3782 38.1471C64.1854 38.1471 66.6545 36.6814 67.7856 33.75H60.0472V28.05Z" fill="#295C9E"/>
<path d="M100.651 43.9285H93.5336L88.0711 34.5643H84.9261V43.9285H78.305V15.4286H89.8919C92.6507 15.4286 94.9957 16.3786 96.9269 18.2786C98.858 20.1786 99.8236 22.4857 99.8236 25.2C99.8236 26.91 99.327 28.5114 98.3339 30.0043C97.3683 31.4971 96.0854 32.6507 94.4853 33.465L100.651 43.9285ZM89.8919 21.5357H84.9261V28.8643H89.8919C90.8023 28.8643 91.5748 28.5114 92.2093 27.8057C92.8714 27.1 93.2025 26.2314 93.2025 25.2C93.2025 24.1686 92.8714 23.3 92.2093 22.5943C91.5748 21.8886 90.8023 21.5357 89.8919 21.5357Z" fill="#295C9E"/>
<path d="M127.859 40.2236C124.934 43.0736 121.375 44.4985 117.182 44.4985C112.989 44.4985 109.43 43.0736 106.505 40.2236C103.581 37.3736 102.119 33.8586 102.119 29.6786C102.119 25.4986 103.581 21.9836 106.505 19.1336C109.43 16.2836 112.989 14.8586 117.182 14.8586C121.375 14.8586 124.934 16.2836 127.859 19.1336C130.783 21.9836 132.245 25.4986 132.245 29.6786C132.245 33.8586 130.783 37.3736 127.859 40.2236ZM108.74 29.6786C108.74 32.1757 109.54 34.2114 111.14 35.7857C112.74 37.36 114.754 38.1471 117.182 38.1471C119.582 38.1471 121.582 37.36 123.182 35.7857C124.81 34.1843 125.624 32.1486 125.624 29.6786C125.624 27.2086 124.81 25.1729 123.182 23.5715C121.582 21.9972 119.582 21.21 117.182 21.21C114.754 21.21 112.74 21.9972 111.14 23.5715C109.54 25.1457 108.74 27.1814 108.74 29.6786Z" fill="#295C9E"/>
<path d="M132.247 15.4286H153.766V21.6986H146.317V43.9285H139.696V21.6986H132.247V15.4286Z" fill="#295C9E"/>
<path d="M163.285 32.61V37.6586H174.872V43.9285H156.664V15.4286H174.665V21.6986H163.285V26.4214H173.631V32.61H163.285Z" fill="#295C9E"/>
<path d="M194.747 30.9V15.4286H201.368V43.9285H196.402L185.229 28.4572V43.9285H178.608V15.4286H183.574L194.747 30.9Z" fill="#295C9E"/>
<path d="M206.33 15.4286H217.917C221.89 15.4286 225.228 16.7993 227.932 19.5407C230.635 22.2822 231.987 25.6614 231.987 29.6786C231.987 33.7229 230.635 37.1157 227.932 39.8571C225.256 42.5714 221.918 43.9285 217.917 43.9285H206.33V15.4286ZM212.951 37.6586H217.917C220.207 37.6586 222.055 36.9393 223.462 35.5007C224.897 34.0621 225.614 32.1214 225.614 29.6786C225.614 27.2357 224.897 25.3086 223.462 23.8972C222.055 22.4315 220.207 21.6986 217.917 21.6986H212.951V37.6586Z" fill="#295C9E"/>
<path d="M242.331 32.61V37.6586H253.918V43.9285H235.71V15.4286H253.711V21.6986H242.331V26.4214H252.676V32.61H242.331Z" fill="#295C9E"/>
<path d="M280 43.9285H272.882L267.42 34.5643H264.275V43.9285H257.654V15.4286H269.241C271.999 15.4286 274.344 16.3786 276.276 18.2786C278.207 20.1786 279.172 22.4857 279.172 25.2C279.172 26.91 278.676 28.5114 277.682 30.0043C276.717 31.4971 275.434 32.6507 273.834 33.465L280 43.9285ZM269.241 21.5357H264.275V28.8643H269.241C270.151 28.8643 270.923 28.5114 271.558 27.8057C272.22 27.1 272.551 26.2314 272.551 25.2C272.551 24.1686 272.22 23.3 271.558 22.5943C270.923 21.8886 270.151 21.5357 269.241 21.5357Z" fill="#295C9E"/>
<defs>
<linearGradient id="paint0_linear" x1="0" y1="30" x2="53.9061" y2="30" gradientUnits="userSpaceOnUse">
<stop stop-color="#FEA82E"/>
<stop offset="1" stop-color="#FF6F00"/>
</linearGradient>
</defs>
</svg>
