<svg width="11" height="20" viewBox="0 0 11 20" fill="none" xmlns="http://www.w3.org/2000/svg">
<g opacity="0.7">
<path d="M3.24605 10.1311L10.0926 16.9776L10.0927 16.9777C10.5368 17.4219 10.5368 18.142 10.0927 18.5862L10.0926 18.5863C9.64833 19.0304 8.92827 19.0304 8.48406 18.5863L8.484 18.5863L0.833105 10.9354L0.833052 10.9353C0.388983 10.4911 0.388983 9.771 0.833052 9.32679L0.833105 9.32674L8.484 1.67584L8.48395 1.67579L8.49021 1.66974C8.94213 1.23329 9.66228 1.24582 10.0987 1.69774L10.0988 1.69776C10.5244 2.13858 10.5245 2.83745 10.0987 3.27827L10.0988 3.27832L10.0926 3.28447L3.24605 10.1311Z" fill="white" stroke="white"/>
</g>
</svg>
